# Blender v2.82 (sub 7) OBJ File: ''
# www.blender.org
mtllib camara.mtl
o Cube
v 0.455828 0.334822 -0.201078
v 0.455828 -0.334822 -0.201078
v 0.455828 0.334822 0.201078
v 0.455828 -0.334822 0.201078
v -0.455828 0.334822 -0.201078
v -0.455828 -0.334822 -0.201078
v -0.455828 0.334822 0.201078
v -0.455828 -0.334822 0.201078
vt 0.625000 0.500000
vt 0.875000 0.500000
vt 0.875000 0.750000
vt 0.625000 0.750000
vt 0.375000 0.750000
vt 0.625000 1.000000
vt 0.375000 1.000000
vt 0.375000 0.000000
vt 0.625000 0.000000
vt 0.625000 0.250000
vt 0.375000 0.250000
vt 0.125000 0.500000
vt 0.375000 0.500000
vt 0.125000 0.750000
vn 0.0000 1.0000 0.0000
vn 0.0000 0.0000 1.0000
vn -1.0000 0.0000 0.0000
vn 0.0000 -1.0000 0.0000
vn 1.0000 0.0000 0.0000
vn 0.0000 0.0000 -1.0000
g Cube_Cube_Material
usemtl Material
s off
f 1/1/1 5/2/1 7/3/1 3/4/1
f 4/5/2 3/4/2 7/6/2 8/7/2
f 8/8/3 7/9/3 5/10/3 6/11/3
f 6/12/4 2/13/4 4/5/4 8/14/4
f 2/13/5 1/1/5 3/4/5 4/5/5
f 6/11/6 5/10/6 1/1/6 2/13/6
o Cylinder_Cylinder.001
v 0.000000 0.225899 -0.446712
v 0.000000 0.225899 -0.160924
v 0.159734 0.159734 -0.446712
v 0.159734 0.159734 -0.160924
v 0.225899 -0.000000 -0.446712
v 0.225899 -0.000000 -0.160924
v 0.159734 -0.159734 -0.446712
v 0.159734 -0.159734 -0.160924
v -0.000000 -0.225899 -0.446712
v -0.000000 -0.225899 -0.160924
v -0.159734 -0.159734 -0.446712
v -0.159734 -0.159734 -0.160924
v -0.225899 0.000000 -0.446712
v -0.225899 -0.000000 -0.160924
v -0.159734 0.159734 -0.446712
v -0.159734 0.159734 -0.160924
vt 1.000000 0.500000
vt 1.000000 1.000000
vt 0.875000 1.000000
vt 0.875000 0.500000
vt 0.750000 1.000000
vt 0.750000 0.500000
vt 0.625000 1.000000
vt 0.625000 0.500000
vt 0.500000 1.000000
vt 0.500000 0.500000
vt 0.375000 1.000000
vt 0.375000 0.500000
vt 0.250000 1.000000
vt 0.250000 0.500000
vt 0.419706 0.419706
vt 0.250000 0.490000
vt 0.080294 0.419706
vt 0.010000 0.250000
vt 0.080294 0.080294
vt 0.250000 0.010000
vt 0.419706 0.080294
vt 0.490000 0.250000
vt 0.125000 1.000000
vt 0.125000 0.500000
vt 0.000000 1.000000
vt 0.000000 0.500000
vt 0.750000 0.490000
vt 0.919706 0.419706
vt 0.990000 0.250000
vt 0.919706 0.080294
vt 0.750000 0.010000
vt 0.580294 0.080294
vt 0.510000 0.250000
vt 0.580294 0.419706
vn 0.3827 0.9239 0.0000
vn 0.9239 0.3827 0.0000
vn 0.9239 -0.3827 -0.0000
vn 0.3827 -0.9239 0.0000
vn -0.3827 -0.9239 0.0000
vn -0.9239 -0.3827 -0.0000
vn -0.0000 -0.0000 1.0000
vn -0.9239 0.3827 0.0000
vn -0.3827 0.9239 0.0000
vn 0.0000 0.0000 -1.0000
g Cylinder_Cylinder.001_None
usemtl None
s off
f 9/15/7 10/16/7 12/17/7 11/18/7
f 11/18/8 12/17/8 14/19/8 13/20/8
f 13/20/9 14/19/9 16/21/9 15/22/9
f 15/22/10 16/21/10 18/23/10 17/24/10
f 17/24/11 18/23/11 20/25/11 19/26/11
f 19/26/12 20/25/12 22/27/12 21/28/12
f 12/29/13 10/30/13 24/31/13 22/32/13 20/33/13 18/34/13 16/35/13 14/36/13
f 21/28/14 22/27/14 24/37/14 23/38/14
f 23/38/15 24/37/15 10/39/15 9/40/15
f 9/41/16 11/42/16 13/43/16 15/44/16 17/45/16 19/46/16 21/47/16 23/48/16
