# Blender v2.78 (sub 0) OBJ File: 'Gizmos.blend'
# www.blender.org
mtllib Giz_mov.mtl
o EjeY_Cube
v 0.049522 0.009382 -0.049522
v 0.049522 0.009382 0.049522
v -0.049522 0.009382 0.049522
v -0.049522 0.009382 -0.049522
v 0.049522 1.699213 -0.049522
v 0.049522 1.699213 0.049522
v -0.049522 1.699213 0.049522
v -0.049522 1.699213 -0.049522
v 0.000000 1.708060 -0.133518
v 0.000000 1.975096 -0.000000
v 0.026048 1.708060 -0.130953
v 0.051095 1.708060 -0.123355
v 0.074179 1.708060 -0.111017
v 0.094412 1.708060 -0.094412
v 0.111016 1.708060 -0.074179
v 0.123355 1.708060 -0.051095
v 0.130953 1.708060 -0.026048
v 0.133518 1.708060 -0.000000
v 0.130953 1.708060 0.026048
v 0.123355 1.708060 0.051095
v 0.111016 1.708060 0.074178
v 0.094412 1.708060 0.094411
v 0.074179 1.708060 0.111016
v 0.051095 1.708060 0.123354
v 0.026048 1.708060 0.130952
v 0.000000 1.708060 0.133518
v -0.026048 1.708060 0.130952
v -0.051095 1.708060 0.123354
v -0.074179 1.708060 0.111016
v -0.094412 1.708060 0.094411
v -0.111016 1.708060 0.074178
v -0.123355 1.708060 0.051095
v -0.130953 1.708060 0.026048
v -0.133518 1.708060 -0.000000
v -0.130952 1.708060 -0.026049
v -0.123354 1.708060 -0.051096
v -0.111016 1.708060 -0.074179
v -0.094411 1.708060 -0.094412
v -0.074178 1.708060 -0.111017
v -0.051095 1.708060 -0.123355
v -0.026048 1.708060 -0.130953
vn 0.0000 -1.0000 -0.0000
vn 0.0000 1.0000 0.0000
vn 1.0000 0.0000 0.0000
vn -0.0000 -0.0000 1.0000
vn -1.0000 -0.0000 -0.0000
vn 0.0000 0.0000 -1.0000
vn 0.0878 0.4455 -0.8910
vn 0.2599 0.4455 -0.8567
vn 0.4220 0.4455 -0.7896
vn 0.5680 0.4455 -0.6921
vn 0.6921 0.4455 -0.5680
vn 0.7896 0.4455 -0.4220
vn 0.8567 0.4455 -0.2599
vn 0.8910 0.4455 -0.0878
vn 0.8910 0.4455 0.0878
vn 0.8567 0.4455 0.2599
vn 0.7896 0.4455 0.4220
vn 0.6921 0.4455 0.5680
vn 0.5680 0.4455 0.6921
vn 0.4220 0.4455 0.7896
vn 0.2599 0.4455 0.8567
vn 0.0878 0.4455 0.8910
vn -0.0878 0.4455 0.8910
vn -0.2599 0.4455 0.8567
vn -0.4220 0.4455 0.7896
vn -0.5680 0.4455 0.6921
vn -0.6921 0.4455 0.5680
vn -0.7896 0.4455 0.4220
vn -0.8567 0.4455 0.2599
vn -0.8910 0.4455 0.0878
vn -0.8910 0.4455 -0.0878
vn -0.8567 0.4455 -0.2599
vn -0.7896 0.4455 -0.4220
vn -0.6921 0.4455 -0.5680
vn -0.5680 0.4455 -0.6921
vn -0.4220 0.4455 -0.7896
vn -0.2599 0.4455 -0.8567
vn -0.0878 0.4455 -0.8910
usemtl Material
s off
f 1//1 2//1 3//1 4//1
f 5//2 8//2 7//2 6//2
f 1//3 5//3 6//3 2//3
f 2//4 6//4 7//4 3//4
f 3//5 7//5 8//5 4//5
f 5//6 1//6 4//6 8//6
f 9//7 10//7 11//7
f 11//8 10//8 12//8
f 12//9 10//9 13//9
f 13//10 10//10 14//10
f 14//11 10//11 15//11
f 15//12 10//12 16//12
f 16//13 10//13 17//13
f 17//14 10//14 18//14
f 18//15 10//15 19//15
f 19//16 10//16 20//16
f 20//17 10//17 21//17
f 21//18 10//18 22//18
f 22//19 10//19 23//19
f 23//20 10//20 24//20
f 24//21 10//21 25//21
f 25//22 10//22 26//22
f 26//23 10//23 27//23
f 27//24 10//24 28//24
f 28//25 10//25 29//25
f 29//26 10//26 30//26
f 30//27 10//27 31//27
f 31//28 10//28 32//28
f 32//29 10//29 33//29
f 33//30 10//30 34//30
f 34//31 10//31 35//31
f 35//32 10//32 36//32
f 36//33 10//33 37//33
f 37//34 10//34 38//34
f 38//35 10//35 39//35
f 39//36 10//36 40//36
f 40//37 10//37 41//37
f 41//38 10//38 9//38
f 9//1 11//1 12//1 13//1 14//1 15//1 16//1 17//1 18//1 19//1 20//1 21//1 22//1 23//1 24//1 25//1 26//1 27//1 28//1 29//1 30//1 31//1 32//1 33//1 34//1 35//1 36//1 37//1 38//1 39//1 40//1 41//1
o EjeX_Cube.001
v 0.007188 -0.049522 0.049522
v 0.007188 0.049522 0.049522
v 0.007188 0.049522 -0.049522
v 0.007188 -0.049522 -0.049522
v 1.697019 -0.049522 0.049522
v 1.697019 0.049522 0.049522
v 1.697019 0.049522 -0.049522
v 1.697019 -0.049522 -0.049522
v 1.705866 -0.133518 0.000000
v 1.972902 -0.000000 0.000000
v 1.705866 -0.130953 0.026048
v 1.705866 -0.123355 0.051095
v 1.705866 -0.111017 0.074179
v 1.705866 -0.094412 0.094412
v 1.705866 -0.074179 0.111016
v 1.705866 -0.051096 0.123355
v 1.705866 -0.026048 0.130953
v 1.705866 -0.000000 0.133518
v 1.705866 0.026048 0.130953
v 1.705866 0.051095 0.123355
v 1.705866 0.074178 0.111016
v 1.705866 0.094411 0.094412
v 1.705866 0.111016 0.074179
v 1.705866 0.123354 0.051095
v 1.705866 0.130952 0.026048
v 1.705866 0.133518 0.000000
v 1.705866 0.130952 -0.026048
v 1.705866 0.123354 -0.051095
v 1.705866 0.111016 -0.074179
v 1.705866 0.094411 -0.094412
v 1.705866 0.074178 -0.111016
v 1.705866 0.051095 -0.123355
v 1.705866 0.026048 -0.130952
v 1.705866 -0.000000 -0.133518
v 1.705866 -0.026049 -0.130952
v 1.705866 -0.051096 -0.123354
v 1.705866 -0.074179 -0.111016
v 1.705866 -0.094412 -0.094411
v 1.705866 -0.111017 -0.074178
v 1.705866 -0.123355 -0.051095
v 1.705866 -0.130953 -0.026048
vn -1.0000 -0.0000 0.0000
vn 1.0000 0.0000 0.0000
vn -0.0000 0.0000 1.0000
vn 0.0000 1.0000 -0.0000
vn 0.0000 -0.0000 -1.0000
vn -0.0000 -1.0000 0.0000
vn 0.4455 -0.8910 0.0878
vn 0.4455 -0.8567 0.2599
vn 0.4455 -0.7896 0.4220
vn 0.4455 -0.6921 0.5680
vn 0.4455 -0.5680 0.6921
vn 0.4455 -0.4220 0.7896
vn 0.4455 -0.2599 0.8567
vn 0.4455 -0.0878 0.8910
vn 0.4455 0.0878 0.8910
vn 0.4455 0.2599 0.8567
vn 0.4455 0.4220 0.7896
vn 0.4455 0.5680 0.6921
vn 0.4455 0.6921 0.5680
vn 0.4455 0.7896 0.4220
vn 0.4455 0.8567 0.2599
vn 0.4455 0.8910 0.0878
vn 0.4455 0.8910 -0.0878
vn 0.4455 0.8567 -0.2599
vn 0.4455 0.7896 -0.4220
vn 0.4455 0.6921 -0.5680
vn 0.4455 0.5680 -0.6921
vn 0.4455 0.4220 -0.7896
vn 0.4455 0.2599 -0.8567
vn 0.4455 0.0878 -0.8910
vn 0.4455 -0.0878 -0.8910
vn 0.4455 -0.2599 -0.8567
vn 0.4455 -0.4220 -0.7896
vn 0.4455 -0.5680 -0.6921
vn 0.4455 -0.6921 -0.5680
vn 0.4455 -0.7896 -0.4220
vn 0.4455 -0.8567 -0.2599
vn 0.4455 -0.8910 -0.0878
usemtl Material.001
s off
f 42//39 43//39 44//39 45//39
f 46//40 49//40 48//40 47//40
f 42//41 46//41 47//41 43//41
f 43//42 47//42 48//42 44//42
f 44//43 48//43 49//43 45//43
f 46//44 42//44 45//44 49//44
f 50//45 51//45 52//45
f 52//46 51//46 53//46
f 53//47 51//47 54//47
f 54//48 51//48 55//48
f 55//49 51//49 56//49
f 56//50 51//50 57//50
f 57//51 51//51 58//51
f 58//52 51//52 59//52
f 59//53 51//53 60//53
f 60//54 51//54 61//54
f 61//55 51//55 62//55
f 62//56 51//56 63//56
f 63//57 51//57 64//57
f 64//58 51//58 65//58
f 65//59 51//59 66//59
f 66//60 51//60 67//60
f 67//61 51//61 68//61
f 68//62 51//62 69//62
f 69//63 51//63 70//63
f 70//64 51//64 71//64
f 71//65 51//65 72//65
f 72//66 51//66 73//66
f 73//67 51//67 74//67
f 74//68 51//68 75//68
f 75//69 51//69 76//69
f 76//70 51//70 77//70
f 77//71 51//71 78//71
f 78//72 51//72 79//72
f 79//73 51//73 80//73
f 80//74 51//74 81//74
f 81//75 51//75 82//75
f 82//76 51//76 50//76
f 50//39 52//39 53//39 54//39 55//39 56//39 57//39 58//39 59//39 60//39 61//39 62//39 63//39 64//39 65//39 66//39 67//39 68//39 69//39 70//39 71//39 72//39 73//39 74//39 75//39 76//39 77//39 78//39 79//39 80//39 81//39 82//39
o EjeZ_Cube.002
v 0.049522 0.049522 0.008842
v 0.049522 -0.049522 0.008842
v -0.049522 -0.049522 0.008842
v -0.049522 0.049522 0.008842
v 0.049522 0.049522 1.698673
v 0.049522 -0.049522 1.698673
v -0.049522 -0.049522 1.698673
v -0.049522 0.049522 1.698673
v 0.000000 0.133518 1.707520
v 0.000000 0.000000 1.974556
v 0.026048 0.130953 1.707520
v 0.051095 0.123355 1.707520
v 0.074179 0.111017 1.707520
v 0.094412 0.094412 1.707520
v 0.111016 0.074179 1.707520
v 0.123355 0.051095 1.707520
v 0.130953 0.026048 1.707520
v 0.133518 0.000000 1.707520
v 0.130953 -0.026048 1.707520
v 0.123355 -0.051095 1.707520
v 0.111016 -0.074178 1.707520
v 0.094412 -0.094411 1.707520
v 0.074179 -0.111016 1.707520
v 0.051095 -0.123354 1.707520
v 0.026048 -0.130952 1.707520
v 0.000000 -0.133518 1.707520
v -0.026048 -0.130952 1.707520
v -0.051095 -0.123354 1.707520
v -0.074179 -0.111016 1.707520
v -0.094412 -0.094411 1.707520
v -0.111016 -0.074178 1.707520
v -0.123355 -0.051095 1.707520
v -0.130953 -0.026048 1.707520
v -0.133518 0.000000 1.707520
v -0.130952 0.026048 1.707520
v -0.123354 0.051096 1.707520
v -0.111016 0.074179 1.707520
v -0.094411 0.094412 1.707520
v -0.074178 0.111017 1.707520
v -0.051095 0.123355 1.707520
v -0.026048 0.130953 1.707520
vn -0.0000 0.0000 -1.0000
vn 0.0000 0.0000 1.0000
vn 1.0000 -0.0000 0.0000
vn -0.0000 -1.0000 -0.0000
vn -1.0000 0.0000 -0.0000
vn 0.0000 1.0000 0.0000
vn 0.0878 0.8910 0.4455
vn 0.2599 0.8567 0.4455
vn 0.4220 0.7896 0.4455
vn 0.5680 0.6921 0.4455
vn 0.6921 0.5680 0.4455
vn 0.7896 0.4220 0.4455
vn 0.8567 0.2599 0.4455
vn 0.8910 0.0878 0.4455
vn 0.8910 -0.0878 0.4455
vn 0.8567 -0.2599 0.4455
vn 0.7896 -0.4220 0.4455
vn 0.6921 -0.5680 0.4455
vn 0.5680 -0.6921 0.4455
vn 0.4220 -0.7896 0.4455
vn 0.2599 -0.8567 0.4455
vn 0.0878 -0.8910 0.4455
vn -0.0878 -0.8910 0.4455
vn -0.2599 -0.8567 0.4455
vn -0.4220 -0.7896 0.4455
vn -0.5680 -0.6921 0.4455
vn -0.6921 -0.5680 0.4455
vn -0.7896 -0.4220 0.4455
vn -0.8567 -0.2599 0.4455
vn -0.8910 -0.0878 0.4455
vn -0.8910 0.0878 0.4455
vn -0.8567 0.2599 0.4455
vn -0.7896 0.4220 0.4455
vn -0.6921 0.5680 0.4455
vn -0.5680 0.6921 0.4455
vn -0.4220 0.7896 0.4455
vn -0.2599 0.8567 0.4455
vn -0.0878 0.8910 0.4455
usemtl Material.002
s off
f 83//77 84//77 85//77 86//77
f 87//78 90//78 89//78 88//78
f 83//79 87//79 88//79 84//79
f 84//80 88//80 89//80 85//80
f 85//81 89//81 90//81 86//81
f 87//82 83//82 86//82 90//82
f 91//83 92//83 93//83
f 93//84 92//84 94//84
f 94//85 92//85 95//85
f 95//86 92//86 96//86
f 96//87 92//87 97//87
f 97//88 92//88 98//88
f 98//89 92//89 99//89
f 99//90 92//90 100//90
f 100//91 92//91 101//91
f 101//92 92//92 102//92
f 102//93 92//93 103//93
f 103//94 92//94 104//94
f 104//95 92//95 105//95
f 105//96 92//96 106//96
f 106//97 92//97 107//97
f 107//98 92//98 108//98
f 108//99 92//99 109//99
f 109//100 92//100 110//100
f 110//101 92//101 111//101
f 111//102 92//102 112//102
f 112//103 92//103 113//103
f 113//104 92//104 114//104
f 114//105 92//105 115//105
f 115//106 92//106 116//106
f 116//107 92//107 117//107
f 117//108 92//108 118//108
f 118//109 92//109 119//109
f 119//110 92//110 120//110
f 120//111 92//111 121//111
f 121//112 92//112 122//112
f 122//113 92//113 123//113
f 123//114 92//114 91//114
f 91//77 93//77 94//77 95//77 96//77 97//77 98//77 99//77 100//77 101//77 102//77 103//77 104//77 105//77 106//77 107//77 108//77 109//77 110//77 111//77 112//77 113//77 114//77 115//77 116//77 117//77 118//77 119//77 120//77 121//77 122//77 123//77
