# Blender v2.78 (sub 0) OBJ File: 'Gizmos.blend'
# www.blender.org
mtllib Giz_mov_z.mtl
o EjeZ_Cube.002
v 0.039078 0.068067 0.008842
v 0.039078 -0.030976 0.008842
v -0.059965 -0.030976 0.008842
v -0.059965 0.068067 0.008842
v 0.039078 0.068067 1.698673
v 0.039078 -0.030976 1.698673
v -0.059965 -0.030976 1.698673
v -0.059965 0.068067 1.698673
v -0.010443 0.152064 1.707520
v -0.010443 0.018546 1.974556
v 0.015605 0.149498 1.707520
v 0.040652 0.141901 1.707520
v 0.063735 0.129562 1.707520
v 0.083968 0.112957 1.707520
v 0.100573 0.092725 1.707520
v 0.112911 0.069641 1.707520
v 0.120509 0.044594 1.707520
v 0.123075 0.018546 1.707520
v 0.120509 -0.007502 1.707520
v 0.112911 -0.032549 1.707520
v 0.100573 -0.055633 1.707520
v 0.083968 -0.075866 1.707520
v 0.063735 -0.092470 1.707520
v 0.040652 -0.104809 1.707520
v 0.015605 -0.112407 1.707520
v -0.010443 -0.114972 1.707520
v -0.036491 -0.112407 1.707520
v -0.061538 -0.104809 1.707520
v -0.084622 -0.092470 1.707520
v -0.104855 -0.075866 1.707520
v -0.121460 -0.055633 1.707520
v -0.133798 -0.032549 1.707520
v -0.141396 -0.007502 1.707520
v -0.143961 0.018546 1.707520
v -0.141396 0.044594 1.707520
v -0.133798 0.069641 1.707520
v -0.121459 0.092725 1.707520
v -0.104855 0.112958 1.707520
v -0.084622 0.129562 1.707520
v -0.061538 0.141901 1.707520
v -0.036491 0.149499 1.707520
vn 0.0000 0.0000 -1.0000
vn 0.0000 0.0000 1.0000
vn 1.0000 -0.0000 0.0000
vn -0.0000 -1.0000 -0.0000
vn -1.0000 0.0000 -0.0000
vn 0.0000 1.0000 0.0000
vn -0.0000 0.8944 0.4472
vn 0.1745 0.8772 0.4472
vn 0.3423 0.8263 0.4472
vn 0.4969 0.7437 0.4472
vn 0.6325 0.6325 0.4472
vn 0.7437 0.4969 0.4472
vn 0.8263 0.3423 0.4472
vn 0.8772 0.1745 0.4472
vn 0.8944 0.0000 0.4472
vn 0.8772 -0.1745 0.4472
vn 0.8263 -0.3423 0.4472
vn 0.7437 -0.4969 0.4472
vn 0.6325 -0.6325 0.4472
vn 0.4969 -0.7437 0.4472
vn 0.3423 -0.8263 0.4472
vn 0.1745 -0.8772 0.4472
vn 0.0000 -0.8944 0.4472
vn -0.1745 -0.8772 0.4472
vn -0.3423 -0.8263 0.4472
vn -0.4969 -0.7437 0.4472
vn -0.6325 -0.6325 0.4472
vn -0.7437 -0.4969 0.4472
vn -0.8263 -0.3423 0.4472
vn -0.8772 -0.1745 0.4472
vn -0.8944 0.0000 0.4472
vn -0.8772 0.1745 0.4472
vn -0.8263 0.3423 0.4472
vn -0.7437 0.4969 0.4472
vn -0.6325 0.6325 0.4472
vn -0.4969 0.7437 0.4472
vn -0.3423 0.8263 0.4472
vn -0.1745 0.8772 0.4472
usemtl Material.002
s 1
f 1//1 2//1 3//1 4//1
f 5//2 8//2 7//2 6//2
f 1//3 5//3 6//3 2//3
f 2//4 6//4 7//4 3//4
f 3//5 7//5 8//5 4//5
f 5//6 1//6 4//6 8//6
f 9//7 10//2 11//8
f 11//8 10//2 12//9
f 12//9 10//2 13//10
f 13//10 10//2 14//11
f 14//11 10//2 15//12
f 15//12 10//2 16//13
f 16//13 10//2 17//14
f 17//14 10//2 18//15
f 18//15 10//2 19//16
f 19//16 10//2 20//17
f 20//17 10//2 21//18
f 21//18 10//2 22//19
f 22//19 10//2 23//20
f 23//20 10//2 24//21
f 24//21 10//2 25//22
f 25//22 10//2 26//23
f 26//23 10//2 27//24
f 27//24 10//2 28//25
f 28//25 10//2 29//26
f 29//26 10//2 30//27
f 30//27 10//2 31//28
f 31//28 10//2 32//29
f 32//29 10//2 33//30
f 33//30 10//2 34//31
f 34//31 10//2 35//32
f 35//32 10//2 36//33
f 36//33 10//2 37//34
f 37//34 10//2 38//35
f 38//35 10//2 39//36
f 39//36 10//2 40//37
f 40//37 10//2 41//38
f 41//38 10//2 9//7
f 9//1 11//1 12//1 13//1 14//1 15//1 16//1 17//1 18//1 19//1 20//1 21//1 22//1 23//1 24//1 25//1 26//1 27//1 28//1 29//1 30//1 31//1 32//1 33//1 34//1 35//1 36//1 37//1 38//1 39//1 40//1 41//1
