# Blender v2.78 (sub 0) OBJ File: 'Gizmos2.blend'
# www.blender.org
mtllib Giz_esc_z.mtl
o EjeY_Cubo
v -0.054992 -0.033117 0.057227
v -0.054992 1.645117 0.057227
v -0.054992 -0.033117 -0.057227
v -0.054992 1.645117 -0.057227
v 0.059463 -0.033117 0.057227
v 0.059463 1.645117 0.057227
v 0.059463 -0.033117 -0.057227
v 0.059463 1.645117 -0.057227
v -0.104340 1.608455 0.105464
v -0.104340 1.825306 0.105464
v -0.104340 1.608455 -0.111387
v -0.104340 1.825306 -0.111387
v 0.112511 1.608455 0.105464
v 0.112511 1.825306 0.105464
v 0.112511 1.608455 -0.111387
v 0.112511 1.825306 -0.111387
vn -1.0000 0.0000 0.0000
vn 0.0000 0.0000 -1.0000
vn 1.0000 0.0000 0.0000
vn 0.0000 0.0000 1.0000
vn 0.0000 -1.0000 0.0000
vn 0.0000 1.0000 0.0000
usemtl Material.001
s off
f 1//1 2//1 4//1 3//1
f 3//2 4//2 8//2 7//2
f 7//3 8//3 6//3 5//3
f 5//4 6//4 2//4 1//4
f 3//5 7//5 5//5 1//5
f 8//6 4//6 2//6 6//6
f 9//1 10//1 12//1 11//1
f 11//2 12//2 16//2 15//2
f 15//3 16//3 14//3 13//3
f 13//4 14//4 10//4 9//4
f 11//5 15//5 13//5 9//5
f 16//6 12//6 10//6 14//6
o EjeX_Cubo.001
v -0.032388 0.057227 0.057227
v 1.645845 0.057227 0.057227
v -0.032388 0.057227 -0.057227
v 1.645845 0.057227 -0.057227
v -0.032388 -0.057227 0.057227
v 1.645845 -0.057227 0.057227
v -0.032388 -0.057227 -0.057227
v 1.645845 -0.057227 -0.057227
v 1.609183 0.106576 0.105464
v 1.826034 0.106576 0.105464
v 1.609183 0.106576 -0.111387
v 1.826034 0.106576 -0.111387
v 1.609183 -0.110275 0.105464
v 1.826034 -0.110275 0.105464
v 1.609183 -0.110275 -0.111387
v 1.826034 -0.110275 -0.111387
vn 0.0000 1.0000 0.0000
vn 0.0000 0.0000 -1.0000
vn -0.0000 -1.0000 0.0000
vn -0.0000 0.0000 1.0000
vn -1.0000 0.0000 0.0000
vn 1.0000 0.0000 0.0000
usemtl Material.002
s off
f 17//7 18//7 20//7 19//7
f 19//8 20//8 24//8 23//8
f 23//9 24//9 22//9 21//9
f 21//10 22//10 18//10 17//10
f 19//11 23//11 21//11 17//11
f 24//12 20//12 18//12 22//12
f 25//7 26//7 28//7 27//7
f 27//8 28//8 32//8 31//8
f 31//9 32//9 30//9 29//9
f 29//10 30//10 26//10 25//10
f 27//11 31//11 29//11 25//11
f 32//12 28//12 26//12 30//12
o EjeZ_Cubo.002
v -0.057227 0.057227 -0.033117
v -0.057227 0.057227 1.645117
v 0.057227 0.057227 -0.033117
v 0.057227 0.057227 1.645117
v -0.057227 -0.057227 -0.033117
v -0.057227 -0.057227 1.645117
v 0.057227 -0.057227 -0.033117
v 0.057227 -0.057227 1.645117
v -0.105464 0.106576 1.608455
v -0.105464 0.106576 1.825306
v 0.111387 0.106576 1.608455
v 0.111387 0.106576 1.825306
v -0.105464 -0.110275 1.608455
v -0.105464 -0.110275 1.825306
v 0.111387 -0.110275 1.608455
v 0.111387 -0.110275 1.825306
vn 0.0000 1.0000 0.0000
vn 1.0000 0.0000 0.0000
vn 0.0000 -1.0000 -0.0000
vn -1.0000 0.0000 -0.0000
vn 0.0000 0.0000 -1.0000
vn 0.0000 0.0000 1.0000
usemtl Material.003
s off
f 33//13 34//13 36//13 35//13
f 35//14 36//14 40//14 39//14
f 39//15 40//15 38//15 37//15
f 37//16 38//16 34//16 33//16
f 35//17 39//17 37//17 33//17
f 40//18 36//18 34//18 38//18
f 41//13 42//13 44//13 43//13
f 43//14 44//14 48//14 47//14
f 47//15 48//15 46//15 45//15
f 45//16 46//16 42//16 41//16
f 43//17 47//17 45//17 41//17
f 48//18 44//18 42//18 46//18
